<?xml version="1.0" encoding="UTF-8"?>
<svg version="1.1" xmlns="http://www.w3.org/2000/svg" width="500" height="500">
<path d="M0 0 C165 0 330 0 500 0 C500 165 500 330 500 500 C335 500 170 500 0 500 C0 335 0 170 0 0 Z " fill="#FEFEFE" transform="translate(0,0)"/>
<path d="M0 0 C5.28 0 10.56 0 16 0 C16 53.46 16 106.92 16 162 C18.31 162.33 20.62 162.66 23 163 C33.04810251 166.25428869 40.84474877 171.27986052 48 179 C48.70576172 179.71542969 48.70576172 179.71542969 49.42578125 180.4453125 C61.47060886 193.33047692 63 209.05622542 63 226 C32.64 226 2.28 226 -29 226 C-29 228.97 -29 231.94 -29 235 C-29.6484375 237.78515625 -29.6484375 237.78515625 -30.375 240.0625 C-31.00113214 242.95165257 -31.2444907 244.42606845 -30.078125 247.1640625 C-28.53132161 249.31794464 -26.88640417 251.13688477 -25 253 C-24.39414062 253.61875 -23.78828125 254.2375 -23.1640625 254.875 C-12.65139965 264.82984808 -0.36422794 267.64397768 13.671875 267.3125 C24.10865334 266.76077603 35.88347059 262.67846039 43.02734375 254.75 C45 253 45 253 47.04296875 253.04296875 C49.34544767 254.1689315 50.6395584 255.37388033 52.3125 257.3125 C52.84488281 257.90675781 53.37726563 258.50101562 53.92578125 259.11328125 C55 261 55 261 54.89453125 262.9921875 C51.81143926 269.91231536 44.05107001 273.79035274 37.5 276.875 C36.89591309 277.16093018 36.29182617 277.44686035 35.66943359 277.74145508 C27.37489027 281.4361761 19.26921481 282.36762005 10.25 282.3125 C9.2820752 282.30686035 8.31415039 282.3012207 7.31689453 282.29541016 C-10.84772211 281.98846248 -24.42126961 275.50992451 -37.77734375 263.38671875 C-39 262 -39 262 -39 260 C-41.5740948 261.98573028 -43.95054803 263.9477222 -46.1875 266.3125 C-58.84425859 278.40673598 -73.40482619 282.47803108 -90.5390625 282.2109375 C-105.04802834 281.70633199 -116.31081187 276.73983234 -127.02734375 267.125 C-129 265 -129 265 -133 259 C-133.33 266.26 -133.66 273.52 -134 281 C-138.95 281 -143.9 281 -149 281 C-149.33 274.4 -149.66 267.8 -150 261 C-151.98 263.31 -153.96 265.62 -156 268 C-169.01219468 279.21808905 -185.13923948 283.23171071 -202.00390625 282.453125 C-219.42823189 281.13858262 -231.72162657 273.79999525 -244 262 C-244.33 268.27 -244.66 274.54 -245 281 C-250.61 281 -256.22 281 -262 281 C-262.33 275.72 -262.66 270.44 -263 265 C-264.27875 265.886875 -265.5575 266.77375 -266.875 267.6875 C-287.9123978 281.63585267 -314.24798154 285.66344937 -338.99853516 280.97216797 C-358.58259045 276.49197363 -377.81751668 264.33849347 -388.8125 247.4375 C-400.69609477 227.69539902 -405.99231053 204.55984395 -400.5 181.75 C-395.21894309 162.14450767 -382.99196071 143.94248369 -365.43212891 133.50854492 C-361.29307804 131.13742764 -357.64506777 129.16126694 -353 128 C-353 88.73 -353 49.46 -353 9 C-347.39 9 -341.78 9 -336 9 C-336 46.29 -336 83.58 -336 122 C-334.35 121.67 -332.7 121.34 -331 121 C-312.76783831 119.732277 -295.75944235 121.62584537 -279 129 C-279.2165625 128.14019531 -279.433125 127.28039062 -279.65625 126.39453125 C-283.93139907 108.24494005 -282.8693748 90.57287364 -273.2265625 74.41015625 C-264.52704304 60.71393117 -252.64100706 52.8450809 -237 49 C-236.36940674 48.82637939 -235.73881348 48.65275879 -235.08911133 48.47387695 C-220.31646595 45.12297071 -205.0508481 48.57361555 -192.3125 56.25 C-191.56613281 56.75015625 -190.81976563 57.2503125 -190.05078125 57.765625 C-187.21746901 59.50003799 -187.21746901 59.50003799 -184 60 C-181.46037181 58.85849465 -179.11190401 57.66052092 -176.6875 56.3125 C-159.94358772 47.62360349 -139.89321969 44.20449717 -121.36523438 49.49145508 C-110.89563806 53.04755487 -102.8167757 58.47849216 -97 68 C-96.3125 70.2734375 -96.3125 70.2734375 -96 72 C-95.38125 71.360625 -94.7625 70.72125 -94.125 70.0625 C-93.08504356 69.03992445 -92.04306089 68.01940871 -91 67 C-90.31808594 66.31035156 -89.63617188 65.62070313 -88.93359375 64.91015625 C-75.10478201 51.5825535 -58.47315893 47.31535416 -39.6875 47.65625 C-29.04487465 48.18051726 -19.31917126 52.42855379 -11 59 C-10.42765625 59.4228125 -9.8553125 59.845625 -9.265625 60.28125 C-5.42805853 63.24491519 -3.84475617 65.73286574 -1 70 C-0.67 46.9 -0.34 23.8 0 0 Z " fill="#1B03AE" transform="translate(420,92)"/>
<path d="M0 0 C0 7.59 0 15.18 0 23 C30.36 23 60.72 23 92 23 C92 34.22 92 45.44 92 57 C87.05 57 82.1 57 77 57 C77.04713135 58.57410645 77.0942627 60.14821289 77.14282227 61.77001953 C77.30588738 67.61769443 77.40910166 73.46516922 77.49438477 79.31445312 C77.53960905 81.8444194 77.60100123 84.37415092 77.67895508 86.90332031 C77.7883142 90.54290626 77.83920636 94.17938197 77.87890625 97.8203125 C77.92535782 98.94865509 77.97180939 100.07699768 78.01966858 101.23953247 C78.024594 108.92457249 78.024594 108.92457249 75.06640625 112.02952576 C72.7648697 113.59790444 70.53310588 114.84855155 68 116 C67.36456772 116.29555283 66.72913544 116.59110565 66.07444763 116.89561462 C64.37331357 117.61549048 62.62356926 118.21703051 60.875 118.8125 C59.73804687 119.21082031 58.60109375 119.60914063 57.4296875 120.01953125 C38.27866897 125.49436684 16.17893158 122.85213106 -1.15625 113.375 C-13.50004634 106.10669676 -22.28465767 94.9789881 -28 82 C-28.39574219 81.17628906 -28.79148438 80.35257812 -29.19921875 79.50390625 C-35.28867729 64.78237316 -33.53409865 44.42705859 -27.74609375 29.83984375 C-23.80267183 21.34053383 -11.20290645 0 0 0 Z " fill="#FDFDFE" transform="translate(67,237)"/>
<path d="M0 0 C8.513535 7.89723533 14.27841655 19.02720728 14.74609375 30.734375 C14.76560997 32.43609049 14.76902641 34.1380533 14.7578125 35.83984375 C14.75217285 36.72986084 14.7465332 37.61987793 14.74072266 38.53686523 C14.62461355 44.80503241 14.12093793 50.28232161 11.4453125 56.02734375 C11.03152344 56.93613281 10.61773437 57.84492188 10.19140625 58.78125 C3.98033169 71.22032303 -4.86784912 77.76510952 -17.96484375 82.17578125 C-30.465373 85.14108634 -42.87524008 83.2285722 -53.8515625 76.8359375 C-63.3424932 70.48579167 -70.4529511 60.89478214 -73.11962891 49.64379883 C-75.19394134 37.16882335 -75.21582136 23.01733118 -68.5546875 12.02734375 C-68.12027344 11.22554688 -67.68585938 10.42375 -67.23828125 9.59765625 C-61.67928753 0.19012841 -52.94265471 -5.91112588 -42.5546875 -8.97265625 C-27.46461757 -12.32600512 -12.28145328 -9.48338518 0 0 Z " fill="#FDFDFE" transform="translate(252.5546875,276.97265625)"/>
<path d="M0 0 C9.1465158 8.7668491 14.62677544 19.57988973 15.05688477 32.35717773 C15.14415726 46.58894072 12.32522691 60.31935152 2.2578125 70.984375 C-7.85108899 80.21232647 -19.26255648 83.80314224 -32.89453125 83.359375 C-44.99266167 82.48841848 -54.88207796 77.70333977 -63.2890625 68.8125 C-73.6308386 55.3604153 -74.74406285 40.5517593 -73.3671875 24.109375 C-72.31336248 19.61699161 -70.75009682 16.04085935 -68.3671875 12.109375 C-67.93277344 11.30757812 -67.49835938 10.50578125 -67.05078125 9.6796875 C-61.49178753 0.27215966 -52.75515471 -5.82909463 -42.3671875 -8.890625 C-27.5380781 -12.18598264 -11.9951853 -9.58031301 0 0 Z " fill="#FDFDFE" transform="translate(405.3671875,163.890625)"/>
<path d="M0 0 C6.04473269 4.10353804 11.58724817 8.74166896 15.0703125 15.26953125 C15.76327082 20.0432441 14.98715109 23.76417595 14.0703125 28.45703125 C11.94495195 39.44818151 12.53677424 51.05472539 15.84375 61.77734375 C16.25710484 66.32424704 13.1761091 69.1040193 10.51171875 72.546875 C2.59867093 81.37150593 -8.47906218 86.66802816 -20.27734375 87.5078125 C-33.890796 87.77979525 -44.84915135 84.62088458 -55.05078125 75.33984375 C-65.62168963 64.42922754 -68.21969909 51.82447276 -68.24658203 37.18969727 C-68.06910007 26.43450957 -64.60938271 17.67197024 -57.9296875 9.26953125 C-57.45144531 8.65464844 -56.97320312 8.03976562 -56.48046875 7.40625 C-42.75658816 -8.1843549 -17.27434426 -10.20337934 0 0 Z " fill="#FDFDFE" transform="translate(354.9296875,272.73046875)"/>
<path d="M0 0 C0.83120361 0.00757324 1.66240723 0.01514648 2.51879883 0.02294922 C14.49302303 0.3412705 23.40960244 4.15537815 31.875 12.54296875 C39.80566883 21.01303968 42.75 27.81717556 42.75 39.4375 C15.36 39.4375 -12.03 39.4375 -40.25 39.4375 C-40.25 27.71829614 -36.77733277 20.03145243 -28.64453125 11.62890625 C-20.16415024 3.86790503 -11.51468296 -0.14760912 0 0 Z " fill="#FDFDFE" transform="translate(195.25,153.5625)"/>
<path d="M0 0 C0.83120361 0.00757324 1.66240723 0.01514648 2.51879883 0.02294922 C14.49302303 0.3412705 23.40960244 4.15537815 31.875 12.54296875 C39.80566883 21.01303968 42.75 27.81717556 42.75 39.4375 C17.67 39.4375 -7.41 39.4375 -33.25 39.4375 C-36.25 25.4375 -36.25 25.4375 -35.25 19.4375 C-26.92775905 7.25136146 -14.72789192 -0.18879992 0 0 Z " fill="#FDFDFE" transform="translate(424.25,266.5625)"/>
<path d="M0 0 C20.46 0 40.92 0 62 0 C60.02 3.96 58.04 7.92 56 12 C55.74045895 16.76158001 55.92141798 20.97837163 56.41015625 25.68164062 C56.56855961 28.31075007 56.6345331 30.44093632 56 33 C53.66874446 35.44355316 51.08495298 36.69539517 48 38 C47.00097656 38.44988281 46.00195312 38.89976562 44.97265625 39.36328125 C31.5559655 43.7394636 18.07237986 43.58377368 5 38 C4.12867432 37.64486328 3.25734863 37.28972656 2.35961914 36.92382812 C0 35 0 35 -0.56762695 31.4465332 C-0.56638015 29.9810444 -0.53888416 28.51539667 -0.48828125 27.05078125 C-0.48324585 26.36576538 -0.47821045 25.68074951 -0.47302246 24.97497559 C-0.44689618 22.42039025 -0.37708775 19.86640236 -0.3125 17.3125 C-0.209375 11.599375 -0.10625 5.88625 0 0 Z " fill="#F8F8FC" transform="translate(174,205)"/>
<path d="M0 0 C6.08189969 5.21305688 10.2090031 10.21124661 11.625 18.25 C11.7015914 21.03469303 11.73170238 23.78413534 11.6953125 26.56640625 C11.69023682 27.30669067 11.68516113 28.0469751 11.67993164 28.80969238 C11.66676397 30.62317289 11.64658968 32.4366002 11.625 34.25 C11.0016124 34.26030746 10.37822479 34.27061493 9.73594666 34.28123474 C3.23052242 34.38966156 -3.27477338 34.50422863 -9.7800293 34.62231445 C-12.20578313 34.66554763 -14.63156513 34.70723062 -17.05737305 34.74731445 C-20.55005364 34.80529911 -24.04259404 34.86891174 -27.53515625 34.93359375 C-28.61459 34.95030624 -29.69402374 34.96701874 -30.8061676 34.98423767 C-36.08612752 35.08742915 -41.16967685 35.344306 -46.375 36.25 C-46.59414062 35.10144531 -46.81328125 33.95289063 -47.0390625 32.76953125 C-49.0329056 22.83676233 -51.60183444 14.25537235 -56.375 5.25 C-49.76452584 0.58378294 -43.15619917 -1.65031134 -35.375 -3.75 C-34.74078125 -3.9459375 -34.1065625 -4.141875 -33.453125 -4.34375 C-22.52048667 -6.48095749 -9.84652479 -5.10560545 0 0 Z " fill="#FBFBFD" transform="translate(300.375,158.75)"/>
<path d="M0 0 C0 14.19 0 28.38 0 43 C-8.51831647 43 -13.56936106 41.7606448 -20.3125 36.75 C-24.90297759 32.05276711 -27.19480232 27.62278976 -27.5 21 C-27.20512868 14.99199695 -25.53746332 10.47691648 -21.19921875 6.2421875 C-14.33815669 0.72669295 -8.88357781 0 0 0 Z " fill="#FAF9FD" transform="translate(271,205)"/>
<path d="M0 0 C1.94140625 1.3125 1.94140625 1.3125 4.50390625 3.4375 C4.50390625 4.0975 4.50390625 4.7575 4.50390625 5.4375 C-16.94609375 5.4375 -38.39609375 5.4375 -60.49609375 5.4375 C-60.49609375 0.1575 -60.49609375 -5.1225 -60.49609375 -10.5625 C-39.09689953 -16.72920235 -18.38547614 -11.50890525 0 0 Z " fill="#F4F3FB" transform="translate(144.49609375,240.5625)"/>
<path d="M0 0 C8.25 0 16.5 0 25 0 C25.85705091 22.56900728 25.85705091 22.56900728 20.96484375 28.9921875 C14.20779004 35.89700978 9.44539148 38.85153617 0 42 C0 28.14 0 14.28 0 0 Z " fill="#FDFDFE" transform="translate(287,205)"/>
<path d="M0 0 C0.33 0 0.66 0 1 0 C1 5.28 1 10.56 1 16 C-2.8053125 16.7734375 -2.8053125 16.7734375 -6.6875 17.5625 C-19.15705966 20.36638427 -28.89610906 25.93551985 -38 35 C-38.86238281 35.85851562 -38.86238281 35.85851562 -39.7421875 36.734375 C-40.36480469 37.36085938 -40.36480469 37.36085938 -41 38 C-41.78375 36.989375 -42.5675 35.97875 -43.375 34.9375 C-47.25424296 30.3681994 -52.00689278 27.24650647 -57 24 C-53.26508393 22.78943675 -49.77402096 22.97042866 -45.875 23.0625 C-30.60993801 23.2002879 -17.12467584 18.80852164 -6 8 C-4.22973365 5.88361233 -2.60767653 3.75068498 -1.05859375 1.46875 C-0.53458984 0.74171875 -0.53458984 0.74171875 0 0 Z " fill="#EFEEF9" transform="translate(420,237)"/>
<path d="M0 0 C0.33 0 0.66 0 1 0 C1 4.62 1 9.24 1 14 C-0.98 15.010625 -2.96 16.02125 -5 17.0625 C-13.13106535 21.36389951 -19.20226749 26.13171869 -24 34 C-24.33 34 -24.66 34 -25 34 C-25 28.39 -25 22.78 -25 17 C-23.06125 16.360625 -21.1225 15.72125 -19.125 15.0625 C-11.07496483 11.99204943 -4.79840115 7.19760173 0 0 Z " fill="#F7F7FC" transform="translate(312,242)"/>
<path d="M0 0 C2.25258885 1.11291801 4.48133282 2.25633933 6.69921875 3.4375 C15.88042933 8.23813298 23.77910149 10.02658109 34 11 C34 15.62 34 20.24 34 25 C33.360625 24.319375 32.72125 23.63875 32.0625 22.9375 C21.78042837 12.77031185 10.14492131 6.85907984 -4 4 C-2.68 2.68 -1.36 1.36 0 0 Z " fill="#F6F5FC" transform="translate(237,250)"/>
<path d="M0 0 C4.95 0.99 9.9 1.98 15 3 C13.86651632 6.40045103 13.1479514 6.87668187 10.3125 8.875 C6.69218947 11.44788088 3.45179304 14.1235058 0 17 C0 11.39 0 5.78 0 0 Z " fill="#F8F7FC" transform="translate(175,257)"/>
<path d="M0 0 C0.99 0.86625 1.98 1.7325 3 2.625 C6.32231847 5.48043461 9.76483948 8.11890037 13.30078125 10.703125 C15 12 15 12 17 14 C11.39 13.67 5.78 13.34 0 13 C0 8.71 0 4.42 0 0 Z " fill="#E2DFF4" transform="translate(328,240)"/>
<path d="M0 0 C2.29113773 1.13732736 4.56900953 2.29507097 6.83984375 3.47265625 C7.86207031 3.99730469 8.88429687 4.52195313 9.9375 5.0625 C10.95714844 5.58972656 11.97679687 6.11695313 13.02734375 6.66015625 C15.74108875 7.88330281 18.07030517 8.5629737 21 9 C19.390625 10.140625 19.390625 10.140625 17 11 C14.046875 10.171875 14.046875 10.171875 10.75 8.75 C5.83879809 6.71796944 1.18822956 5.1190299 -4 4 C-2.68 2.68 -1.36 1.36 0 0 Z " fill="#DEDBF3" transform="translate(237,250)"/>
<path d="M0 0 C0.99 0 1.98 0 3 0 C3 4.29 3 8.58 3 13 C1 12 1 12 0.375 10.4375 C-0.16368951 6.93601819 -0.05903219 3.54193167 0 0 Z " fill="#F0EFF9" transform="translate(155,206)"/>
</svg>
